# xmcd CD database file
#
# Track frame offsets:
#	150
#	22255
#	40422
#	63022
#	89870
#	99327
#	117677
#	139340
#	158877
#	166280
#	187090
#	213442
#	235512
#	245105
#	264115
#
# Disc length: 3958 seconds
#
# Revision: 0
# Processed by: cddbd v1.4PL0 Copyright (c) Steve Scherf et al.
# Submitted via: CD2WAV32(EN) R3.19
#
DISCID=da0f740f
DTITLE=ZAP MAMA - Sabsylma
DYEAR=1900
DGENRE=
TTITLE0=Furai
TTITLE1=Sabsylma
TTITLE2=Mais qu'est-ce?
TTITLE3=Kndia
TTITLE4=De la vie a la mort
TTITLE5=Citoyen 120
TTITLE6=Locklat Afurica
TTITLE7=Mr.Brown
TTITLE8=Reveil en Australie
TTITLE9=Fi Dunia
TTITLE10=Mamadit
TTITLE11=For No One
TTITLE12=The Mamas Of The Mamas
TTITLE13=Adjosio Ominie
TTITLE14=Gyessie
EXTD=
EXTT0=
EXTT1=
EXTT2=
EXTT3=
EXTT4=
EXTT5=
EXTT6=
EXTT7=
EXTT8=
EXTT9=
EXTT10=
EXTT11=
EXTT12=
EXTT13=
EXTT14=
PLAYORDER=
